<svg width="400" height="200" viewBox="0 0 2048 1142" fill="none" xmlns="http://www.w3.org/2000/svg">
  <path id="Imported Path"
        fill="black" stroke="black" stroke-width="1"
        d="M 633.45,96.12
           C 461.04,117.05 236.23,201.75 144.79,280.74
             97.16,322.61 47.63,402.55 47.63,440.62
             47.63,513.90 119.07,586.23 298.15,694.72
             361.97,733.73 437.22,780.37 465.80,797.50
             465.80,797.50 518.19,830.80 518.19,830.80
             518.19,830.80 475.33,852.69 475.33,852.69
             324.82,929.78 361.97,1057.30 523.91,1018.28
             619.16,995.44 640.12,955.47 595.35,878.39
             567.72,832.71 566.77,834.61 640.12,820.34
             682.98,811.77 683.94,811.77 689.65,837.47
             695.37,869.82 719.18,894.57 743.00,894.57
             752.52,894.57 776.33,880.29 794.43,862.21
             813.48,845.08 828.73,836.51 828.73,843.18
             828.73,849.84 839.20,863.16 853.49,871.73
             876.35,886.95 878.26,886.95 904.93,866.97
             920.17,856.50 938.27,846.98 943.99,846.98
             950.65,846.98 963.99,839.37 974.47,830.80
             992.57,814.63 993.52,814.63 987.80,838.42
             979.23,872.68 1007.81,900.28 1016.38,866.02
             1025.91,831.76 1063.05,766.09 1072.58,768.95
             1076.39,769.90 1079.25,786.08 1077.34,804.16
             1076.39,822.24 1077.34,846.03 1081.15,856.50
             1088.77,881.24 1129.73,882.19 1144.97,857.45
             1156.41,839.37 1157.36,839.37 1184.03,862.21
             1219.27,891.71 1233.56,890.76 1299.29,858.40
             1336.44,839.37 1352.63,834.61 1352.63,843.18
             1352.63,850.79 1363.11,863.16 1377.40,871.73
             1400.26,886.95 1402.17,886.95 1428.84,866.97
             1444.08,856.50 1462.18,846.98 1469.80,846.98
             1476.47,846.98 1486.94,842.22 1492.66,836.51
             1499.33,829.85 1504.09,833.66 1508.85,849.84
             1519.33,890.76 1537.43,890.76 1619.35,846.98
             1651.74,829.85 1652.69,829.85 1655.55,848.89
             1657.45,858.40 1669.83,871.73 1683.17,878.39
             1703.17,886.95 1714.60,885.05 1758.42,862.21
             1758.42,862.21 1809.86,835.56 1809.86,835.56
             1809.86,835.56 1839.39,860.31 1839.39,860.31
             1880.35,895.52 1913.69,892.66 1955.60,849.84
             1975.61,830.80 1990.85,811.77 1990.85,807.01
             1990.85,792.74 1972.75,799.40 1962.27,818.43
             1949.89,842.22 1898.45,868.87 1883.21,860.31
             1876.54,856.50 1862.25,845.08 1850.82,834.61
             1850.82,834.61 1829.86,815.58 1829.86,815.58
             1829.86,815.58 1855.58,781.32 1855.58,781.32
             1920.36,696.62 1945.12,631.91 1945.12,540.55
             1945.12,459.65 1930.84,416.83 1894.64,385.42
             1860.35,356.87 1825.10,354.97 1784.14,380.67
             1704.13,429.20 1685.08,583.37 1743.18,717.56
             1743.18,717.56 1761.28,760.38 1761.28,760.38
             1761.28,760.38 1732.70,754.67 1732.70,754.67
             1707.94,749.91 1699.36,754.67 1667.93,788.93
             1625.06,834.61 1609.82,838.42 1609.82,800.35
             1609.82,741.35 1553.62,737.54 1510.76,794.64
             1479.32,835.56 1457.41,838.42 1457.41,800.35
             1457.41,785.12 1451.70,767.99 1444.08,762.28
             1425.03,746.11 1383.11,759.43 1365.02,787.03
             1346.92,814.63 1267.85,856.50 1233.56,856.50
             1216.42,856.50 1205.94,848.89 1198.32,831.76
             1184.98,803.21 1198.32,789.88 1239.28,789.88
             1266.90,789.88 1291.67,767.99 1281.19,751.82
             1263.09,723.27 1162.12,759.43 1162.12,794.64
             1162.12,813.67 1115.45,865.06 1114.49,846.98
             1113.54,839.37 1112.59,813.67 1111.64,789.88
             1109.73,750.87 1106.87,747.06 1084.96,744.20
             1066.87,742.30 1053.53,748.01 1040.19,765.14
             1017.33,794.64 1009.71,796.54 1009.71,770.85
             1009.71,760.38 1003.04,751.82 995.42,751.82
             985.90,751.82 981.13,761.33 981.13,778.46
             981.13,807.01 965.89,827.95 945.89,827.95
             938.27,827.95 933.51,816.53 933.51,800.35
             933.51,785.12 926.84,767.99 919.22,761.33
             899.21,745.15 855.40,762.28 841.11,791.79
             825.87,822.24 769.67,866.02 744.90,866.02
             722.04,866.02 718.23,846.03 722.04,753.72
             722.04,753.72 725.85,685.20 725.85,685.20
             725.85,685.20 766.81,685.20 766.81,685.20
             788.72,685.20 821.11,682.34 838.25,679.49
             887.78,669.02 851.59,658.55 784.91,664.26
             784.91,664.26 723.94,669.02 723.94,669.02
             723.94,669.02 723.94,629.05 723.94,629.05
             723.94,576.71 698.23,573.85 693.46,625.24
             690.60,658.55 687.75,661.41 659.17,664.26
             621.07,668.07 628.69,685.20 668.70,685.20
             690.60,685.20 696.32,689.01 691.56,700.43
             688.70,708.99 685.84,731.83 685.84,751.82
             685.84,751.82 685.84,787.98 685.84,787.98
             685.84,787.98 618.21,803.21 618.21,803.21
             618.21,803.21 549.63,818.43 549.63,818.43
             549.63,818.43 501.05,787.03 501.05,787.03
             474.37,768.95 399.12,723.27 334.35,684.25
             162.89,581.47 85.73,507.24 85.73,442.52
             85.73,348.31 230.52,230.30 423.89,167.49
             648.69,94.21 848.73,98.97 901.12,177.96
             932.55,226.50 915.41,302.63 863.02,351.16
             835.39,376.86 831.58,390.18 851.59,390.18
             867.78,390.18 931.60,320.71 943.03,289.31
             993.52,157.02 851.59,68.52 633.45,96.12 Z
           M 1860.35,389.23
           C 1923.21,413.02 1931.79,575.76 1876.54,688.05
             1861.30,720.41 1840.34,757.53 1830.82,769.90
             1830.82,769.90 1812.72,791.79 1812.72,791.79
             1812.72,791.79 1787.95,739.44 1787.95,739.44
             1774.62,710.89 1756.52,653.79 1747.94,613.82
             1726.99,510.09 1742.23,443.48 1796.52,400.65
             1825.10,377.81 1828.91,377.81 1860.35,389.23 Z
           M 1756.52,790.83
           C 1769.85,801.30 1781.28,813.67 1781.28,818.43
             1781.28,828.90 1704.13,866.02 1693.65,860.31
             1680.31,851.74 1685.08,806.06 1702.22,787.98
             1721.27,766.09 1725.08,766.09 1756.52,790.83 Z
           M 895.40,843.18
           C 895.40,856.50 871.59,867.92 863.02,859.35
             855.40,851.74 855.40,813.67 863.97,806.06
             870.64,798.45 894.45,827.00 895.40,843.18 Z
           M 1419.31,843.18
           C 1419.31,856.50 1395.50,867.92 1386.92,859.35
             1379.30,851.74 1379.30,813.67 1387.88,806.06
             1394.55,798.45 1418.36,827.00 1419.31,843.18 Z
           M 1560.29,853.64
           C 1545.05,871.73 1533.62,859.35 1533.62,825.09
             1533.62,825.09 1533.62,794.64 1533.62,794.64
             1533.62,794.64 1552.67,818.43 1552.67,818.43
             1565.05,835.56 1567.91,845.08 1560.29,853.64 Z
           M 562.01,886.95
           C 602.02,952.62 575.35,990.68 485.80,997.35
             433.41,1001.15 428.65,1000.20 418.17,977.36
             410.55,960.23 410.55,948.81 419.13,933.58
             430.56,910.74 509.62,856.50 530.57,856.50
             537.24,856.50 551.53,870.77 562.01,886.95 Z" />
</svg>

